# xmcd
#
# Track frame offsets: 
#        150
#        11959
#        25663
#        37086
#        48449
#        59614
#        68953
#        80368
#        91905
#        103694
#
# Disc length: 1522 seconds
#
# Revision: 1
# Processed by: cddbd v1.5.2PL0 Copyright (c) Steve Scherf et al.
# Submitted via: ExactAudioCopy v0.95b4
#
DISCID=8205f00a
DTITLE=Patsy Cline - Patsy Cline Collector's Edition - Disc 1
DYEAR=2007
DGENRE=Country
TTITLE0=Walkin' After Midnight
TTITLE1=A Church, A Courtroom, and Then Goodbye
TTITLE2=Crazy Dreams
TTITLE3=The Heart You Break May Be Your Own
TTITLE4=Hungry For Love
TTITLE5=I Love You Honey
TTITLE6=Just Out Of Reach
TTITLE7=Let The Teardrops Fall
TTITLE8=Never No More
TTITLE9=Lovesick Blues
EXTD=Madacy Entertainment \nTCD2 53463\n
EXTT0=
EXTT1=
EXTT2=
EXTT3=
EXTT4=
EXTT5=
EXTT6=
EXTT7=
EXTT8=
EXTT9=
PLAYORDER=
